<svg xmlns="http://www.w3.org/2000/svg" viewBox="0 0 360 100" fill="none">
  <g transform="translate(0,0)">
    <path d="M89.5238 40.3245C89.5238 40.3245 89.5238 40.4817 89.5238 40.6389C89.5238 41.8964 87.6191 68.3042 54.7619 80.2506V63.7457L74.6032 42.368C76.3492 40.4817 76.3492 37.4951 74.2857 35.6089C72.381 33.8798 69.3651 33.8798 67.4603 35.9232L54.7619 49.7559V35.6089C54.7619 35.6089 54.7619 35.6089 54.7619 35.4517C56.3492 31.8363 63.9683 17.6893 82.6984 17.6893C82.8572 17.6893 83.0159 17.6893 83.1746 17.6893C90.6349 26.4919 89.5238 40.1673 89.5238 40.3245ZM45.2381 49.7559L32.381 35.9232C30.6349 34.037 27.6191 33.8798 25.7143 35.6089C23.8095 37.3379 23.6508 40.4817 25.3968 42.368L45.2381 63.7457V80.0934C12.381 68.147 10.6349 41.582 10.4762 40.4817C10.4762 40.3245 10.4762 40.3245 10.4762 40.1673C10.4762 40.0102 9.20636 26.3347 16.6667 17.5321C16.8254 17.5321 16.9841 17.5321 17.3016 17.5321C36.1905 17.5321 43.6508 31.8363 45.2381 35.2945C45.2381 35.2945 45.2381 35.2945 45.2381 35.4517V49.7559V49.7559ZM88.8889 9.51548C88.0953 8.72953 86.9841 8.25796 85.873 8.10077C67.9365 7.00045 56.1905 16.1174 50 24.6056C43.8095 16.1174 32.2222 7.00045 14.127 8.10077C13.0159 8.10077 11.9048 8.72953 11.1111 9.51548C-0.47618 20.9903 0.793663 39.2242 0.952393 40.9533C0.952393 42.2108 1.74604 51.1706 7.61906 61.5451C13.1746 71.448 24.9207 84.4947 48.254 91.0966C48.4127 91.0966 48.5714 91.0966 48.5714 91.2538C48.7302 91.2538 48.7302 91.2538 48.8889 91.2538C49.0476 91.2538 49.0476 91.2538 49.2064 91.2538C49.3651 91.2538 49.6826 91.2538 49.8413 91.2538C50 91.2538 50.3175 91.2538 50.4762 91.2538C50.6349 91.2538 50.6349 91.2538 50.7937 91.2538C50.9524 91.2538 50.9524 91.2538 51.1111 91.2538C51.2699 91.2538 51.4286 91.2538 51.5873 91.0966C94.9206 78.993 98.7302 44.4115 98.8889 41.1105C99.0476 40.1673 100.635 21.3047 88.8889 9.51548Z" fill="#88B04B"/>
  </g>
  <text x="115" y="70" font-family="-apple-system, BlinkMacSystemFont, 'Segoe UI', Helvetica, Arial, sans-serif" font-size="58" font-weight="600" letter-spacing="-1" fill="#3C5A4A">fullscript</text>
</svg>
