<?xml version="1.0" encoding="UTF-8"?><svg id="Layer_1" xmlns="http://www.w3.org/2000/svg" viewBox="0 0 432 432"><defs><style>.cls-1{fill:#81c44d;}.cls-1,.cls-2,.cls-3,.cls-4,.cls-5{stroke-width:0px;}.cls-2{fill:#03ab8e;}.cls-3{fill:#894c9e;}.cls-4{fill:#fff;}.cls-5{fill:#21c1dc;}</style></defs><path class="cls-5" d="M55.54,205.81c2.19,0,5.25.21,7.82,1.93,2.99,1.98,4.44,5.41,4.44,8.67,0,2.09-.54,5.3-3.48,7.81-2.84,2.41-6.1,2.78-8.73,2.78h-2.46v14.51h-5.46v-35.7h7.87ZM53.13,221.98h2.46c4.71,0,6.96-2.3,6.96-5.62,0-1.98-.8-5.51-7.01-5.51h-2.41v11.13Z"/><path class="cls-5" d="M98.42,210.95h-14.24v9.05h13.81v5.14h-13.81v11.24h14.24v5.14h-19.7v-35.7h19.7v5.14Z"/><path class="cls-5" d="M117.22,205.81c4.34,0,7.12.54,9.42,2.09,3.91,2.62,4.23,6.85,4.23,8.4,0,5.14-3.16,8.89-7.92,9.96l11.13,15.26h-6.58l-10.22-14.61h-.96v14.61h-5.46v-35.7h6.37ZM116.31,222.19h1.71c1.5,0,7.6-.16,7.6-5.84,0-5.03-4.76-5.51-7.44-5.51h-1.87v11.35Z"/><path class="cls-5" d="M160.21,213.74c-.32-.8-.8-1.55-1.61-2.25-1.13-.91-2.3-1.28-3.85-1.28-3.32,0-5.03,1.98-5.03,4.28,0,1.07.37,2.94,3.85,4.34l3.59,1.45c6.58,2.68,8.41,6.42,8.41,10.49,0,6.8-4.82,11.45-11.51,11.45-4.12,0-6.58-1.55-8.4-3.59-1.93-2.14-2.78-4.5-2.99-6.96l5.4-1.18c0,1.77.64,3.43,1.5,4.55,1.02,1.28,2.52,2.14,4.66,2.14,3.32,0,5.89-2.41,5.89-6s-2.78-5.14-5.14-6.1l-3.43-1.45c-2.94-1.23-7.28-3.69-7.28-9.05,0-4.82,3.75-9.42,10.44-9.42,3.85,0,6.05,1.45,7.17,2.41.96.86,1.98,2.09,2.73,3.58l-4.39,2.57Z"/><path class="cls-5" d="M185.64,205.81c2.19,0,5.25.21,7.82,1.93,2.99,1.98,4.44,5.41,4.44,8.67,0,2.09-.54,5.3-3.48,7.81-2.84,2.41-6.1,2.78-8.73,2.78h-2.46v14.51h-5.46v-35.7h7.87ZM183.24,221.98h2.46c4.71,0,6.96-2.3,6.96-5.62,0-1.98-.8-5.51-7.01-5.51h-2.41v11.13Z"/><path class="cls-5" d="M228.53,210.95h-14.24v9.05h13.81v5.14h-13.81v11.24h14.24v5.14h-19.7v-35.7h19.7v5.14Z"/><path class="cls-5" d="M267.4,214.16c-3.96-3.59-7.65-3.96-9.69-3.96-7.76,0-13.01,5.73-13.01,13.59s5.46,13.38,13.06,13.38c4.28,0,7.6-2.19,9.64-4.12v6.48c-3.59,2.14-7.33,2.68-9.8,2.68-6.48,0-10.55-2.94-12.63-4.93-4.17-3.91-5.73-8.46-5.73-13.49,0-6.58,2.73-11.13,5.73-13.97,3.69-3.48,7.98-4.66,12.9-4.66,3.27,0,6.42.59,9.53,2.57v6.42Z"/><path class="cls-5" d="M289.41,210.95v30.56h-5.46v-30.56h-8.19v-5.14h21.84v5.14h-8.19Z"/><path class="cls-5" d="M313.23,205.81v35.7h-5.46v-35.7h5.46Z"/><path class="cls-5" d="M328.97,205.81l9.96,24.89,9.96-24.89h5.89l-15.84,38.01-15.84-38.01h5.89Z"/><path class="cls-5" d="M384.33,210.95h-14.24v9.05h13.81v5.14h-13.81v11.24h14.24v5.14h-19.7v-35.7h19.7v5.14Z"/><path class="cls-4" d="M147.89,265.22h8.46v-7.74h3.9v20.01h-3.9v-8.91h-8.46v8.91h-3.9v-20.01h3.9v7.74Z"/><path class="cls-4" d="M184.89,260.85h-7.2v4.47h6.9v3.36h-6.9v5.46h7.2v3.36h-11.1v-20.01h11.1v3.36Z"/><path class="cls-4" d="M209.51,273.3h-8.07l-1.77,4.2h-4.23l8.61-20.01h3.06l8.37,20.01h-4.2l-1.77-4.2ZM208.36,270.11l-2.85-7.2-2.85,7.2h5.7Z"/><path class="cls-4" d="M230.7,257.49v16.65h6.18v3.36h-10.08v-20.01h3.9Z"/><path class="cls-4" d="M254.33,260.85v16.65h-3.9v-16.65h-4.5v-3.36h12.9v3.36h-4.5Z"/><path class="cls-4" d="M274.17,265.22h8.46v-7.74h3.9v20.01h-3.9v-8.91h-8.46v8.91h-3.9v-20.01h3.9v7.74Z"/><path class="cls-3" d="M159.33,363.25h-.31c-.28-.05-.59-.05-.88-.13-.93-.23-1.81-.54-2.3-1.21-.21-.31-.36-.65-.47-1.06-.05-.15-.08-.34-.08-.52,0-.75.34-1.58.54-2.04.59-1.34,1.58-2.35,2.4-3.46.21-.23.49-.41.67-.67.26-.34.59-.62.9-.91.36-.34.7-.75,1.11-1.06l.31-.34c.67-.52,1.27-1.14,1.96-1.65.08-.08.13-.15.18-.23l1.73-1.32c.23-.18.47-.41.7-.59,1.01-.72,2.02-1.5,3.03-2.22l.26-.13c.26-.15.52-.39.78-.57.41-.31.83-.54,1.27-.83.34-.21.7-.49,1.03-.72,1.76-1.16,3.62-2.19,5.43-3.31,1.03-.62,2.12-1.08,3.13-1.7.13-.08.28-.1.41-.18.23-.13.47-.28.7-.39.16-.08.28-.1.44-.21.57-.34,1.21-.62,1.83-.91.18-.08.36-.21.54-.28,1.14-.52,2.27-1.01,3.41-1.5l.49-.18c.47-.21.98-.42,1.47-.59.26-.1.78-.18.91-.39.1-.13.08-.41.13-.59.08-.31.13-.7.21-1.01l.03-.54c.13-.47.05-1.06.18-1.55v-.39c.02-.21.02-.52.02-.75v-.49c0-.36,0-.7-.08-.98v-.34c-.05-.26-.03-.57-.1-.85-.05-.21-.05-.47-.13-.7-.21-.78-.41-1.55-.72-2.22-.98-2.22-2.58-3.64-4.96-4.44-.57-.18-1.19-.23-1.78-.39-.26-.05-.54-.05-.78-.1-.34,0-.67-.02-1.01-.05l-.15-.03-.52.05-.41-.05-.26.03h-.75c-.54.1-1.19.03-1.73.13l-.62.05c-.83.13-1.68.26-2.51.36-.93.26-1.89.34-2.82.59-1.78.49-3.59.93-5.27,1.47-1.21.39-2.38.7-3.52,1.16-.28.13-.59.18-.85.31-.03.15-.03.34-.03.52v.91c-.02.1-.02.26-.02.41v.41l-.05,2.59-.02.46.02.75c-.02.18-.02.39-.02.59v.98c0,.21,0,.39-.03.54v.72l-.03.41.03.7-.08.72v.36c-.03.41-.03.8-.03,1.21l-.03.52c-.08.34-.08.7-.08,1.08,0,.36,0,.72-.08,1.06l-.03.85c-.05.23-.02.52-.08.78-.15.57-.15,1.24-.31,1.76-.18.54-.28,1.06-.83,1.19l-.18.02c-.39,0-.64-.39-.78-.59-.41-.7-.54-1.65-.78-2.53l-.05-.54c-.15-.59-.13-1.32-.28-1.91v-.34l-.05-.41-.03-.75-.03-.21.03-.36-.03-.23c-.02-.15-.05-.36-.05-.57l.03-.34-.03-.31-.03-.91.05-.59v-.75l.02-.18-.02-.31.02-.21c.16-.6.05-1.32.18-1.89,0-.15,0-.31.03-.44.08-.41.08-.9.18-1.32l.03-.47c.1-.31.08-.7.18-1.03.1-.34.21-.75.21-1.14-.26,0-.39.1-.57.18l-.88.39c-1.11.47-2.2.88-3.23,1.4-.39.21-.8.36-1.19.57-.08.02-.21.08-.34.08-.05,0-.08,0-.13-.03-.21-.05-.36-.28-.36-.54,0-.08,0-.15.05-.23.16-.26.91-.62,1.19-.78,1.4-.72,2.76-1.5,4.11-2.3l1.39-.83c.16-.1.42-.15.54-.31.15-.21.21-.9.31-1.19.26-.59.39-1.24.64-1.86.13-.39.36-.8.47-1.19,0-.18,0-.39-.03-.57.03-.1.03-.23.03-.36v-2.51c.03-.16.03-.31.03-.49v-8.22l-.05-1.99c-.02-.13-.02-.39-.02-.62,0-.26,0-.49.02-.62.03-.1.03-.18.08-.26.05-.1.26-.26.44-.26.08,0,.16.02.21.08.18.05.31.23.34.41v.36l.05.39-.02.6c.02.46.02,1.03.02,1.55v6.85l.03.65-.05.46.02.52c-.02.16-.05.42-.05.67,0,.34.03.67.05.83h.08c.64-1.37,1.5-2.64,2.35-3.82l.36-.39c.39-.52.83-1.11,1.32-1.5.26-.18.44-.49.7-.7.47-.34.93-.78,1.45-1.06s1.42-.75,2.27-.75c.26,0,.52.05.78.15.46.21.83.57,1.03,1.03.15.36.21.75.21,1.16,0,1.03-.39,2.14-.72,2.79-.23.46-.42.9-.67,1.34-.39.59-.85,1.16-1.29,1.73-.1.13-.28.26-.39.41-.26.36-.6.75-.96,1.01l-.23.28c-.39.28-.72.67-1.11.98-.15.1-.28.28-.41.39-.44.34-.85.7-1.29,1.01-.49.36-.96.75-1.45,1.06l-1.27.83c-.1.05-.21.18-.31.23-.13.1-.36.15-.46.28l-.03.1c0,.1.05.16.15.16.13-.1.34-.1.52-.18l.72-.28c.18-.08.31-.08.49-.13.8-.31,1.71-.54,2.51-.85.39-.13.75-.15,1.11-.28,1.55-.52,3.25-.83,4.91-1.29l.57-.08c.59-.15,1.24-.23,1.86-.39.1,0,.21,0,.31-.03.67-.15,1.45-.15,2.12-.31l.75-.03c.39-.1.85-.08,1.27-.1h.78l.41-.05.41.05h.54l1.19.08c.67.15,1.34.15,1.97.34,1.08.31,2.09.67,2.95,1.19.49.31.88.67,1.32,1.01.26.21.49.52.7.78.15.21.39.44.54.67.62.93,1.03,2.01,1.42,3.2.18.54.23,1.16.36,1.76l.03.34c.13.59.13,1.4.13,2.07v.96l-.15,1.91c-.08.28-.05.59-.13.91-.05.28-.13.54-.13.85.05.02.05.05.15.05.13-.08.26-.08.41-.13l.7-.23c.18-.05.34-.05.52-.1.65-.18,1.4-.31,2.09-.47.28-.08.57-.03.88-.1.23-.05.54-.08.85-.08.44,0,.93.05,1.27.13.36.1.64.13.93.28l.49.28c.15.08.44.21.44.52l-.03.13c-.05.18-.31.47-.59.47l-.21-.05c-.15-.08-.26-.23-.41-.31-.18-.13-.49-.21-.72-.28-.26-.05-.67-.1-1.08-.1-.34,0-.65.02-.85.08-.34.08-.62.03-.93.13-.78.18-1.58.31-2.3.52-.49.16-.96.28-1.4.44-.18.05-.44.05-.52.21-.13.21-.13.67-.23.93-.21.7-.36,1.42-.64,2.09-.16.39-.26.78-.42,1.16-.57,1.4-1.11,2.84-1.86,4.06-.13.23-.21.47-.34.7l-1.52,2.51c-.13.23-.34.44-.47.64-.44.62-.85,1.24-1.29,1.83-.08.08-.18.15-.23.23-.41.54-.83,1.01-1.24,1.55-.15.21-.39.39-.54.62-.21.26-.52.44-.72.7-.21.28-.47.49-.7.72-.28.31-.57.62-.91.85-.26.21-.49.54-.75.75-.7.52-1.32,1.16-2.04,1.68-2.61,1.91-5.37,3.67-8.55,5.04-1.06.44-2.14.85-3.25,1.22-.78.26-1.6.41-2.43.64-.62.18-1.29.18-1.91.34-.23.05-.47.03-.65.05h-.28c-.21.05-.57.08-.9.08-.23,0-.47-.03-.62-.05ZM160.7,362.17h.34c.31-.05.65-.03.96-.1l1.14-.21c.08-.02.18-.02.26-.02,1.65-.44,3.18-.85,4.6-1.47.54-.23,1.09-.36,1.6-.65.47-.23.96-.41,1.42-.65,1.63-.85,3.23-1.78,4.7-2.82.75-.52,1.45-1.11,2.19-1.65.42-.31.8-.7,1.24-1.03l.23-.26c.57-.42,1.01-.96,1.53-1.42.7-.65,1.45-1.42,2.04-2.2.13-.18.36-.36.52-.57.28-.36.59-.72.88-1.11.75-.98,1.42-2.02,2.12-3.05.31-.44.52-.96.8-1.42,1.08-1.78,1.86-3.77,2.64-5.87.15-.41.28-.85.41-1.32.1-.31.28-.62.28-1.01l-.03-.03h-.1c-.21.16-.57.21-.83.31-.8.34-1.6.62-2.4.98-1.14.49-2.33,1.04-3.41,1.6-.75.41-1.52.7-2.22,1.14-.18.1-.39.15-.59.26-.47.31-1.01.57-1.47.85-.16.1-.28.13-.44.21-1.03.64-2.17,1.21-3.2,1.86-2.53,1.58-5.01,3.18-7.39,4.88-1.47,1.03-2.82,2.2-4.26,3.26-.1.1-.21.23-.34.34-.52.36-.96.8-1.45,1.19l-.28.31c-.28.21-.52.47-.8.7l-.31.31c-.28.23-.52.52-.78.75-.34.36-.7.7-1.01,1.08-.15.21-.39.36-.54.57-.57.75-1.21,1.47-1.65,2.33-.28.54-.67,1.32-.67,2.07,0,.34.08.67.28.96.41.57,1.24.7,2.04.91l.23.03.36-.03.23.03c.13.02.31.05.49.05.23,0,.49-.03.64-.08ZM160.64,340.44c.18-.1.15-.72.21-.98.16-.7.08-1.53.23-2.22l.02-.7c.05-.26.05-.54.05-.83s0-.57.05-.8v-.41l.03-.23v-1.47c.08-.28.08-.7.08-1.08v-1.14l.03-.21-.03-.54c0-.1,0-.21.03-.31.02-.08.02-.41.02-.62v-.21l-.02-.28c.05-.23.05-.59.05-.96v-.65c0-.9.05-1.68.05-2.56v-.54c0-.23,0-.47-.08-.59h-.08c-.15.1-.49.08-.57.26-.13.15-.1.59-.18.85-.15.57-.21,1.21-.36,1.81-.08.31-.03.59-.1.91-.13.57-.08,1.27-.23,1.86-.03.1-.03.23-.03.36s0,.26-.02.39c-.03.13-.03.28-.03.41l-.03.67c-.03.42-.03.83-.03,1.27-.02.13-.05.46-.05.78,0,.34.03.64.05.8.03.1.03.21.03.34l-.03.54.03.23c.03.36.05.75.05,1.11.02.18,0,.36.05.57.1.44.08.98.18,1.42,0,.13,0,.23.03.36.13.57.18,1.16.34,1.68.08.28.08.54.21.75l.05-.03ZM163.62,319.22c.64-.44,1.27-.88,1.89-1.34l.98-.8.15-.15c1.76-1.34,3.31-3.13,4.47-5.04.13-.21.21-.44.31-.67l.23-.54c.18-.46.42-1.21.42-1.86s-.26-1.24-1.14-1.24c-.13.08-.44.08-.6.13-.44.18-.9.39-1.29.67-2.33,1.63-3.95,4.03-5.32,6.64-.26.52-.54,1.06-.78,1.63-.13.23-.31.52-.39.78-.03.1-.03.23-.03.39v2.01c.05.03.08.03.15.03.26-.23.62-.39.93-.62Z"/><path class="cls-3" d="M202.39,339.04c-1.01-.67-1.73-1.45-2.14-2.64-.1-.26-.1-.49-.18-.78-.08-.28-.16-.8-.16-1.29,0-.23.03-.47.08-.65.1-.36.1-.7.23-1.01.31-.88.7-1.58,1.24-2.22.52-.64,1.37-1.16,2.22-1.47.21-.08.44-.1.67-.15h.23c.05,0,.1,0,.13-.03,1.6.05,2.64.78,3.15,1.83.1.28.21.67.21,1.06,0,.23-.03.49-.13.7-.1.26-.28.52-.47.72-.62.75-1.78,1.03-2.89,1.29-.21.05-.44.05-.67.05s-.46,0-.7.05c-.13-.02-.28-.02-.44-.02l-1.13-.05-.57-.05c-.05.08-.05.18-.05.31l.02.13v.28c.05.34.1.67.23.98.36.96,1.01,1.71,1.94,2.15.31.13.65.15,1.04.26.08.02.18.02.28.02l.36-.02h.57l.96-.23c.15-.05.28-.05.44-.13.78-.28,1.5-.7,2.17-1.14l.75-.57.31-.31c.42-.28.8-.7,1.14-1.11.16-.18.36-.34.49-.52.13-.18.23-.39.41-.49.08-.05.15-.05.23-.05.28,0,.52.23.57.44l.02.13c0,.28-.28.44-.39.6-.41.52-.88,1.01-1.37,1.45-1.19,1.14-2.51,2.04-4.19,2.69-.34.1-.7.18-1.06.26-.28.08-.65.1-1.01.1-.96,0-2.04-.23-2.56-.57ZM206.94,332.04c.05-.13.08-.26.08-.39,0-.26-.1-.52-.21-.7-.39-.64-1.06-1.01-2.12-1.06-.08.05-.26.02-.36.05l-.7.21c-.88.34-1.65,1.27-2.07,2.12-.13.28-.36.65-.36,1.03l.15.03h.23c.26.08.59.08.88.08h.75c1.5,0,3.23-.36,3.72-1.37Z"/><path class="cls-3" d="M216.92,358.91c-.36-.23-.57-.75-.57-1.32,0-.21.03-.41.08-.62.26-.88.62-1.7,1.04-2.4.18-.31.31-.62.49-.91.75-1.13,1.5-2.25,2.3-3.33.57-.78,1.21-1.47,1.78-2.25.08-.08.18-.16.26-.26.62-.8,1.34-1.5,1.97-2.3.23-.31.54-.57.8-.88.16-.21.42-.36.57-.59l.49-.54c.08-.05.13-.13.21-.21.31-.39.7-.72,1.03-1.09.15-.18.67-.57.7-.8-.05-.1-.05-.23-.1-.34l-.23-.59c-.23-.47-.54-.88-.83-1.27-.1-.18-.28-.28-.41-.44-.13-.21-.34-.44-.52-.57-.28-.23-.54-.52-.83-.72-.64-.46-1.27-.96-1.91-1.4-.88-.64-1.81-1.19-2.71-1.81-2.2-1.55-4.26-3.28-5.74-5.53-.72-1.09-1.29-2.33-1.73-3.67-.39-1.21-.57-2.71-.57-4.21,0-1.73.23-3.49.64-4.86.13-.39.16-.75.31-1.11.23-.57.41-1.14.65-1.71.34-.78.72-1.55,1.13-2.25.42-.67.75-1.34,1.19-1.96.46-.67.98-1.32,1.47-1.99.13-.16.31-.28.44-.44.21-.28.46-.54.7-.83l.44-.41c.18-.26.44-.49.7-.7.23-.15.39-.41.62-.57.59-.46,1.19-1.01,1.81-1.45,1.14-.75,2.35-1.5,3.75-1.96.54-.16,1.06-.26,1.63-.42.15-.02.65-.02.72-.08h.49c.67,0,1.27.05,1.78.21,2.07.67,3.38,2.14,4.21,4.03.26.59.41,1.21.62,1.83.21.62.23,1.32.39,1.99.08.34.02.67.1.98v.39c.03.13.03.28.03.44v.83c.03.08.03.21.03.36,0,.26-.03.54-.05.7l-.02.21.02.31-.02.18c-.03.08-.03.18-.03.26v.31c0,.08,0,.15-.03.23-.18.8-.15,1.7-.36,2.46-.18.62-.1,1.58-.72,1.73h-.05c-.13,0-.23-.05-.31-.1-.18-.13-.26-.26-.26-.44,0-.1.03-.23.08-.39.08-.21.05-.36.1-.57.18-.67.21-1.42.39-2.14.05-.26.03-.52.08-.75.05-.23.05-.64.08-.9v-.39l.02-.28-.02-.62v-1.16c-.03-.13-.03-.28-.03-.41,0-.15,0-.31-.03-.47-.15-.64-.13-1.32-.28-1.91-.16-.54-.26-1.11-.47-1.6-.75-1.83-1.58-3.15-3.38-3.9-.41-.18-1.19-.36-1.89-.36-.23,0-.46.03-.67.08-.59.13-1.14.18-1.68.36-1.6.54-2.95,1.4-4.21,2.33-.28.21-.54.46-.85.67l-.13.18-.52.41-.31.34c-.31.21-.62.52-.85.83l-.31.31-.62.72c-.13.18-.31.31-.44.49-.49.67-1.06,1.34-1.52,2.07-.78,1.24-1.47,2.53-2.07,3.93-.21.49-.36,1.01-.54,1.5-.36.96-.47,2.02-.72,3.08-.08.36-.05.78-.13,1.11l-.02.83c-.03.13-.03.34-.03.57,0,.26,0,.52.05.7l.03.47c0,.08,0,.18.03.28.1.49.1,1.01.23,1.5.26.91.52,1.76.88,2.56.28.64.67,1.27,1.06,1.81.1.13.18.28.28.44.23.36.54.67.83,1.03l.23.21c.13.15.28.31.42.49.05.03.1.05.13.1.18.15.31.34.52.47.23.18.44.46.67.64l1.06.8c.36.26.75.59,1.14.85.7.52,1.42.93,2.15,1.42.8.57,1.63,1.14,2.4,1.73.26.18.47.39.72.59l.23.26c.52.39,1.11,1.06,1.47,1.6.23.34.44.7.65,1.06.08.15.1.41.23.52t.08.02h.03c.13,0,.28-.28.39-.36.42-.34.8-.72,1.19-1.11.39-.41.88-.85,1.32-1.19l.23-.26c.41-.31.75-.67,1.16-.96.21-.15.36-.36.54-.52.65-.49,1.24-1.03,1.89-1.53l1.19-.85c.13-.08.26-.21.39-.31.1-.05.21-.08.34-.08.18,0,.36.05.44.21.08.08.1.18.1.31,0,.1-.03.23-.1.31-.13.21-.42.34-.62.47-.44.31-.88.67-1.32,1.01-.93.67-1.73,1.5-2.64,2.17-.39.31-.72.7-1.11,1.01l-.21.23c-.31.23-.54.54-.85.78-.31.23-.62.52-.88.8l-.34.36c-.23.18-.44.41-.64.62l-.18.15s-.03.08-.03.13c0,.13.05.31.08.42l.05,1.06v.18c-.1.39-.02.8-.13,1.19-.15.7-.28,1.37-.49,1.99-.75,2.25-1.94,4.19-3.21,5.92-.31.46-.72.9-1.06,1.34-.26.31-.52.6-.75.91l-.36.34c-.18.26-.44.47-.64.67-.49.49-1.01.98-1.55,1.4-.83.62-1.65,1.29-2.71,1.65-.21.08-.49.13-.78.13s-.6-.08-.8-.21ZM217.95,357.98c.31-.1.57-.15.8-.31l.34-.15c.41-.23.8-.52,1.16-.78.34-.26.64-.57.98-.83.05-.05.1-.13.18-.18.39-.31.8-.7,1.09-1.09l.36-.34c.26-.34.54-.62.8-.98.34-.44.78-.85,1.09-1.32.57-.8,1.08-1.63,1.58-2.46.18-.26.26-.54.41-.83.1-.15.23-.36.31-.54.16-.34.23-.67.39-1.01.26-.59.47-1.27.65-1.96.1-.31.08-.6.15-.96.05-.21.08-.49.08-.75,0-.21-.03-.39-.05-.54-.03-.02-.05-.02-.08-.02-.44.41-.85.85-1.24,1.29-.21.23-.44.44-.62.67l-.36.34c-.36.47-.8.85-1.16,1.34-.15.18-.36.34-.49.52-.41.52-.88,1.01-1.29,1.52-.28.42-.67.75-.96,1.16-.96,1.27-1.97,2.51-2.82,3.85-.59.96-1.21,1.94-1.6,3.07-.05.13-.21.62-.21.96,0,.18.03.28.13.34l.13.02c.08,0,.21-.02.26-.05Z"/><path class="cls-3" d="M239.69,339.04c-1.01-.67-1.73-1.45-2.14-2.64-.1-.26-.1-.49-.18-.78-.08-.28-.16-.8-.16-1.29,0-.23.03-.47.08-.65.1-.36.1-.7.23-1.01.31-.88.7-1.58,1.24-2.22.52-.64,1.37-1.16,2.22-1.47.21-.08.44-.1.67-.15h.23c.05,0,.1,0,.13-.03,1.6.05,2.64.78,3.15,1.83.1.28.21.67.21,1.06,0,.23-.03.49-.13.7-.1.26-.28.52-.47.72-.62.75-1.78,1.03-2.89,1.29-.21.05-.44.05-.67.05s-.46,0-.7.05c-.13-.02-.28-.02-.44-.02l-1.13-.05-.57-.05c-.05.08-.05.18-.05.31l.02.13v.28c.05.34.1.67.23.98.36.96,1.01,1.71,1.94,2.15.31.13.65.15,1.04.26.08.02.18.02.28.02l.36-.02h.57l.96-.23c.15-.05.28-.05.44-.13.78-.28,1.5-.7,2.17-1.14l.75-.57.31-.31c.42-.28.8-.7,1.14-1.11.16-.18.36-.34.49-.52.13-.18.23-.39.41-.49.08-.05.15-.05.23-.05.28,0,.52.23.57.44l.02.13c0,.28-.28.44-.39.6-.41.52-.88,1.01-1.37,1.45-1.19,1.14-2.51,2.04-4.19,2.69-.34.1-.7.18-1.06.26-.28.08-.65.1-1.01.1-.96,0-2.04-.23-2.56-.57ZM244.24,332.04c.05-.13.08-.26.08-.39,0-.26-.1-.52-.21-.7-.39-.64-1.06-1.01-2.12-1.06-.08.05-.26.02-.36.05l-.7.21c-.88.34-1.65,1.27-2.07,2.12-.13.28-.36.65-.36,1.03l.15.03h.23c.26.08.59.08.88.08h.75c1.5,0,3.23-.36,3.72-1.37Z"/><path class="cls-3" d="M251.82,339.04c-1.01-.67-1.73-1.45-2.14-2.64-.1-.26-.1-.49-.18-.78-.08-.28-.16-.8-.16-1.29,0-.23.03-.47.08-.65.1-.36.1-.7.23-1.01.31-.88.7-1.58,1.24-2.22.52-.64,1.37-1.16,2.22-1.47.21-.08.44-.1.67-.15h.23c.05,0,.1,0,.13-.03,1.6.05,2.64.78,3.15,1.83.1.28.21.67.21,1.06,0,.23-.03.49-.13.7-.1.26-.28.52-.47.72-.62.75-1.78,1.03-2.89,1.29-.21.05-.44.05-.67.05s-.46,0-.7.05c-.13-.02-.28-.02-.44-.02l-1.13-.05-.57-.05c-.05.08-.05.18-.05.31l.02.13v.28c.05.34.1.67.23.98.36.96,1.01,1.71,1.94,2.15.31.13.65.15,1.04.26.08.02.18.02.28.02l.36-.02h.57l.96-.23c.15-.05.28-.05.44-.13.78-.28,1.5-.7,2.17-1.14l.75-.57.31-.31c.42-.28.8-.7,1.14-1.11.16-.18.36-.34.49-.52.13-.18.23-.39.41-.49.08-.05.15-.05.23-.05.28,0,.52.23.57.44l.02.13c0,.28-.28.44-.39.6-.41.52-.88,1.01-1.37,1.45-1.19,1.14-2.51,2.04-4.19,2.69-.34.1-.7.18-1.06.26-.28.08-.65.1-1.01.1-.96,0-2.04-.23-2.56-.57ZM256.37,332.04c.05-.13.08-.26.08-.39,0-.26-.1-.52-.21-.7-.39-.64-1.06-1.01-2.12-1.06-.08.05-.26.02-.36.05l-.7.21c-.88.34-1.65,1.27-2.07,2.12-.13.28-.36.65-.36,1.03l.15.03h.23c.26.08.59.08.88.08h.75c1.5,0,3.23-.36,3.72-1.37Z"/><path class="cls-3" d="M270.38,339.97c-.7-.31-.98-.98-1.24-1.73-.31-.91-.36-2.07-.36-3.26l.03-3c0-.52,0-1.01-.1-1.42-.08-.31-.05-.75-.44-.75-.1.1-.26.15-.36.23-.26.18-.59.54-.78.8-1.21,1.65-2.07,3.85-2.95,5.84-.28.67-.59,1.29-.96,1.89-.28.41-.49.83-1.06.96-.1,0-.21-.03-.28-.05-.57-.13-.52-1.76-.52-3.2,0-1.24.15-2.38.15-2.38,0-.16,0-.31.05-.44.05-.1.21-.26.36-.31l.13-.02c.26,0,.46.21.54.39.03.05.03.15.03.26l-.26,3.44.03.57c.28-.39.28-.44.49-.88.18-.41.41-.83.59-1.24.57-1.27,1.03-2.58,1.71-3.72.13-.18.18-.41.31-.62.39-.59.8-1.27,1.32-1.7.36-.39.47-.52.96-.75.15-.05.36-.05.49-.13,1.09,0,1.29.75,1.5,1.6.05.59.1.75.1,1.45v.44l.05.26-.08.47.05.59-.03.21v1.83c0,.42,0,.85.1,1.21.05.26,0,.44.08.7.13.47.34,1.32.78,1.47l.1.03c.13,0,.26-.05.36-.1.41-.18.67-.44.98-.72.8-.7,1.45-1.58,2.09-2.46.28-.41.65-.8.93-1.19.23-.36.49-.67.72-.98.05-.08.1-.21.18-.26.08-.05.21-.1.36-.1.05,0,.13,0,.18.05.15.05.34.26.34.49,0,.05,0,.13-.03.18-.08.21-.28.36-.41.54-.83,1.21-1.16,1.63-2.04,2.77-.18.26-.42.46-.6.7-.44.57-.96,1.14-1.57,1.52-.36.26-.91.65-1.5.65-.18,0-.36-.03-.54-.1Z"/><path class="cls-3" d="M276.84,340.9c-.36,0-.78-.47-.78-.88.03-.26.23-.72.44-.85.08-.05.23-.05.31-.1.47,0,.91.41.91.91,0,.44-.31.85-.78.93h-.1Z"/><polygon class="cls-2" points="176.31 121.03 211.18 121.03 199.89 109.75 161.22 105.95 176.31 121.03"/><polygon class="cls-1" points="213.57 118.65 213.57 83.78 198.48 68.69 202.28 107.36 213.57 118.65"/><polygon class="cls-3" points="216.94 118.65 228.23 107.36 232.03 68.69 216.94 83.78 216.94 118.65"/><polygon class="cls-5" points="254.2 121.03 269.28 105.95 230.62 109.75 219.33 121.03 254.2 121.03"/><polygon class="cls-5" points="211.18 124.41 176.31 124.41 161.22 139.5 199.89 135.7 211.18 124.41"/><polygon class="cls-2" points="254.2 124.41 219.33 124.41 230.62 135.7 269.28 139.5 254.2 124.41"/><polygon class="cls-1" points="216.94 126.8 216.94 161.67 232.03 176.75 228.23 138.09 216.94 126.8"/><polygon class="cls-3" points="213.57 126.8 202.28 138.09 198.48 176.75 213.57 161.67 213.57 126.8"/><polygon class="cls-1" points="196.4 166.94 199.18 138.81 171.04 141.58 196.4 166.94"/><polygon class="cls-1" points="234.11 78.51 231.33 106.64 259.47 103.87 234.11 78.51"/><polygon class="cls-5" points="259.47 141.58 231.34 138.8 234.11 166.94 259.47 141.58"/><polygon class="cls-5" points="171.04 103.87 199.17 106.65 196.4 78.51 171.04 103.87"/></svg>